<svg width="148" height="79" viewBox="0 0 148 79" fill="none" xmlns="http://www.w3.org/2000/svg">
<path d="M53.2548 64.0354H55.5949C56.3846 64.0354 56.9769 64.2473 57.3717 64.671C57.7665 65.0947 57.9639 65.7159 57.9639 66.5344V67.5311C57.9639 68.3497 57.7665 68.9708 57.3717 69.3946C56.9769 69.8183 56.3846 70.0301 55.5949 70.0301H54.8438V74.147H53.2548V64.0354ZM55.5949 68.5856C55.855 68.5856 56.0476 68.5134 56.1727 68.369C56.3076 68.2245 56.375 67.9789 56.375 67.6323V66.4333C56.375 66.0866 56.3076 65.8411 56.1727 65.6966C56.0476 65.5522 55.855 65.4799 55.5949 65.4799H54.8438V68.5856H55.5949ZM58.8269 64.0354H61.1815C62 64.0354 62.5971 64.228 62.9726 64.6132C63.3482 64.9888 63.536 65.5714 63.536 66.3611V66.9822C63.536 68.0319 63.1893 68.6964 62.496 68.9756V69.0045C62.8812 69.1201 63.1508 69.356 63.3049 69.7123C63.4686 70.0687 63.5504 70.5453 63.5504 71.1424V72.9191C63.5504 73.208 63.5601 73.444 63.5793 73.627C63.5986 73.8003 63.6467 73.9736 63.7238 74.147H62.1059C62.0482 73.9833 62.0096 73.8292 61.9904 73.6847C61.9711 73.5403 61.9615 73.2803 61.9615 72.9047V71.0557C61.9615 70.5935 61.8844 70.2709 61.7304 70.0879C61.5859 69.9049 61.3307 69.8135 60.9648 69.8135H60.4159V74.147H58.8269V64.0354ZM60.9937 68.369C61.3115 68.369 61.5474 68.2871 61.7015 68.1234C61.8652 67.9597 61.947 67.6852 61.947 67.3V66.52C61.947 66.154 61.8796 65.8892 61.7448 65.7255C61.6196 65.5618 61.4174 65.4799 61.1381 65.4799H60.4159V68.369H60.9937ZM66.9497 74.2914C66.1696 74.2914 65.5726 74.0699 65.1585 73.627C64.7444 73.184 64.5373 72.558 64.5373 71.7491V66.4333C64.5373 65.6244 64.7444 64.9984 65.1585 64.5555C65.5726 64.1125 66.1696 63.891 66.9497 63.891C67.7297 63.891 68.3267 64.1125 68.7408 64.5555C69.1549 64.9984 69.362 65.6244 69.362 66.4333V71.7491C69.362 72.558 69.1549 73.184 68.7408 73.627C68.3267 74.0699 67.7297 74.2914 66.9497 74.2914ZM66.9497 72.8469C67.4986 72.8469 67.773 72.5147 67.773 71.8502V66.3322C67.773 65.6677 67.4986 65.3355 66.9497 65.3355C66.4007 65.3355 66.1263 65.6677 66.1263 66.3322V71.8502C66.1263 72.5147 66.4007 72.8469 66.9497 72.8469ZM70.8121 74.2048C70.5232 74.2048 70.2777 74.1855 70.0754 74.147V72.7025C70.2295 72.741 70.4028 72.7602 70.5954 72.7602C70.9132 72.7602 71.1492 72.6832 71.3033 72.5291C71.4573 72.3654 71.5344 72.1199 71.5344 71.7924V64.0354H73.1233V71.7491C73.1233 72.5773 72.9307 73.1936 72.5455 73.5981C72.17 74.0025 71.5922 74.2048 70.8121 74.2048ZM74.2594 64.0354H78.5929V65.4799H75.8484V68.1523H78.0296V69.5968H75.8484V72.7025H78.5929V74.147H74.2594V64.0354ZM81.746 74.2914C80.9852 74.2914 80.4026 74.0747 79.9982 73.6414C79.6033 73.208 79.4059 72.5965 79.4059 71.8069V66.3755C79.4059 65.5859 79.6033 64.9744 79.9982 64.541C80.4026 64.1077 80.9852 63.891 81.746 63.891C82.5068 63.891 83.0846 64.1077 83.4794 64.541C83.8839 64.9744 84.0861 65.5859 84.0861 66.3755V67.4445H82.5838V66.2744C82.5838 65.6485 82.319 65.3355 81.7893 65.3355C81.2597 65.3355 80.9949 65.6485 80.9949 66.2744V71.9224C80.9949 72.5388 81.2597 72.8469 81.7893 72.8469C82.319 72.8469 82.5838 72.5388 82.5838 71.9224V70.3768H84.0861V71.8069C84.0861 72.5965 83.8839 73.208 83.4794 73.6414C83.0846 74.0747 82.5068 74.2914 81.746 74.2914ZM86.279 65.4799H84.6179V64.0354H89.5292V65.4799H87.868V74.147H86.279V65.4799Z" fill="#666666"/>
<path d="M54.4971 4.95699H52.8359V3.51249H57.7473V4.95699H56.0861V13.624H54.4971V4.95699ZM58.5166 3.51249H60.1055V7.62933H61.81V3.51249H63.399V13.624H61.81V9.07383H60.1055V13.624H58.5166V3.51249ZM64.5824 3.51249H68.9159V4.95699H66.1713V7.62933H68.3525V9.07383H66.1713V12.1795H68.9159V13.624H64.5824V3.51249Z" fill="#666666"/>
<path d="M55.1826 43.6606H58.1626L60.4426 57.6606H58.2426L57.8426 54.8806V54.9206H55.3426L54.9426 57.6606H52.9026L55.1826 43.6606ZM57.5826 53.0206L56.6026 46.1006H56.5626L55.6026 53.0206H57.5826ZM62.312 45.6606H60.012V43.6606H66.812V45.6606H64.512V57.6606H62.312V45.6606ZM69.7924 45.6606H67.4924V43.6606H74.2924V45.6606H71.9924V57.6606H69.7924V45.6606ZM75.3576 43.6606H81.3576V45.6606H77.5576V49.3606H80.5776V51.3606H77.5576V55.6606H81.3576V57.6606H75.3576V43.6606ZM82.6232 43.6606H85.3832L87.5232 52.0406H87.5632V43.6606H89.5232V57.6606H87.2632L84.6232 47.4406H84.5832V57.6606H82.6232V43.6606ZM91.1584 43.6606H94.5184C95.6117 43.6606 96.4317 43.954 96.9784 44.5406C97.525 45.1273 97.7984 45.9873 97.7984 47.1206V54.2006C97.7984 55.334 97.525 56.194 96.9784 56.7806C96.4317 57.3673 95.6117 57.6606 94.5184 57.6606H91.1584V43.6606ZM94.4784 55.6606C94.8384 55.6606 95.1117 55.554 95.2984 55.3406C95.4984 55.1273 95.5984 54.7806 95.5984 54.3006V47.0206C95.5984 46.5406 95.4984 46.194 95.2984 45.9806C95.1117 45.7673 94.8384 45.6606 94.4784 45.6606H93.3584V55.6606H94.4784ZM100.944 43.6606H103.924L106.204 57.6606H104.004L103.604 54.8806V54.9206H101.104L100.704 57.6606H98.6643L100.944 43.6606ZM103.344 53.0206L102.364 46.1006H102.324L101.364 53.0206H103.344ZM107.272 43.6606H110.032L112.172 52.0406H112.212V43.6606H114.172V57.6606H111.912L109.272 47.4406H109.232V57.6606H107.272V43.6606ZM118.907 57.8606C117.853 57.8606 117.047 57.5606 116.487 56.9606C115.94 56.3606 115.667 55.514 115.667 54.4206V46.9006C115.667 45.8073 115.94 44.9606 116.487 44.3606C117.047 43.7606 117.853 43.4606 118.907 43.4606C119.96 43.4606 120.76 43.7606 121.307 44.3606C121.867 44.9606 122.147 45.8073 122.147 46.9006V48.3806H120.067V46.7606C120.067 45.894 119.7 45.4606 118.967 45.4606C118.233 45.4606 117.867 45.894 117.867 46.7606V54.5806C117.867 55.434 118.233 55.8606 118.967 55.8606C119.7 55.8606 120.067 55.434 120.067 54.5806V52.4406H122.147V54.4206C122.147 55.514 121.867 56.3606 121.307 56.9606C120.76 57.5606 119.96 57.8606 118.907 57.8606ZM123.463 43.6606H129.463V45.6606H125.663V49.3606H128.683V51.3606H125.663V55.6606H129.463V57.6606H123.463V43.6606Z" fill="#666666"/>
<path d="M55.9386 19.6513H59.8126L62.7766 37.8513H59.9166L59.3966 34.2373V34.2893H56.1466L55.6266 37.8513H52.9746L55.9386 19.6513ZM59.0586 31.8193L57.7846 22.8233H57.7326L56.4846 31.8193H59.0586ZM68.2734 38.1113C66.8867 38.1113 65.8294 37.7213 65.1014 36.9413C64.3734 36.144 64.0094 35.0087 64.0094 33.5353V19.6513H66.8694V33.7433C66.8694 34.3673 66.9907 34.818 67.2334 35.0953C67.4934 35.3727 67.8574 35.5113 68.3254 35.5113C68.7934 35.5113 69.1487 35.3727 69.3914 35.0953C69.6514 34.818 69.7814 34.3673 69.7814 33.7433V19.6513H72.5374V33.5353C72.5374 35.0087 72.1734 36.144 71.4454 36.9413C70.7174 37.7213 69.66 38.1113 68.2734 38.1113ZM76.8103 22.2513H73.8203V19.6513H82.6603V22.2513H79.6703V37.8513H76.8103V22.2513ZM88.0774 38.1113C86.6734 38.1113 85.5988 37.7127 84.8534 36.9153C84.1081 36.118 83.7354 34.9913 83.7354 33.5353V23.9673C83.7354 22.5113 84.1081 21.3847 84.8534 20.5873C85.5988 19.79 86.6734 19.3913 88.0774 19.3913C89.4814 19.3913 90.5561 19.79 91.3014 20.5873C92.0468 21.3847 92.4194 22.5113 92.4194 23.9673V33.5353C92.4194 34.9913 92.0468 36.118 91.3014 36.9153C90.5561 37.7127 89.4814 38.1113 88.0774 38.1113ZM88.0774 35.5113C89.0654 35.5113 89.5594 34.9133 89.5594 33.7173V23.7853C89.5594 22.5893 89.0654 21.9913 88.0774 21.9913C87.0894 21.9913 86.5954 22.5893 86.5954 23.7853V33.7173C86.5954 34.9133 87.0894 35.5113 88.0774 35.5113ZM94.3536 19.6513H98.4356L100.256 32.6773H100.308L102.128 19.6513H106.21V37.8513H103.506V24.0713H103.454L101.374 37.8513H98.9816L96.9016 24.0713H96.8496V37.8513H94.3536V19.6513ZM110.554 19.6513H114.428L117.392 37.8513H114.532L114.012 34.2373V34.2893H110.762L110.242 37.8513H107.59L110.554 19.6513ZM113.674 31.8193L112.4 22.8233H112.348L111.1 31.8193H113.674ZM119.822 22.2513H116.832V19.6513H125.672V22.2513H122.682V37.8513H119.822V22.2513ZM127.057 19.6513H134.857V22.2513H129.917V27.0613H133.843V29.6613H129.917V35.2513H134.857V37.8513H127.057V19.6513ZM136.502 19.6513H140.87C142.291 19.6513 143.357 20.0327 144.068 20.7953C144.779 21.558 145.134 22.676 145.134 24.1493V33.3533C145.134 34.8267 144.779 35.9447 144.068 36.7073C143.357 37.47 142.291 37.8513 140.87 37.8513H136.502V19.6513ZM140.818 35.2513C141.286 35.2513 141.641 35.1127 141.884 34.8353C142.144 34.558 142.274 34.1073 142.274 33.4833V24.0193C142.274 23.3953 142.144 22.9447 141.884 22.6673C141.641 22.39 141.286 22.2513 140.818 22.2513H139.362V35.2513H140.818Z" fill="#666666"/>
<mask id="path-5-outside-1_507_39" maskUnits="userSpaceOnUse" x="0.0761719" y="27.7019" width="18" height="29" fill="black">
<rect fill="white" x="0.0761719" y="27.7019" width="18" height="29"/>
<path fill-rule="evenodd" clip-rule="evenodd" d="M9.31675 39.4335C12.2802 39.4335 14.6825 37.0312 14.6825 34.0677C14.6825 31.1043 12.2802 28.702 9.31675 28.702C6.35331 28.702 3.95097 31.1043 3.95097 34.0677C3.95097 37.0312 6.35331 39.4335 9.31675 39.4335ZM12.0406 42.5265C10.7177 40.4643 7.70405 40.4643 6.38114 42.5265L1.61386 49.958C0.178461 52.1956 1.78519 55.1352 4.44358 55.1352H13.9782C16.6366 55.1352 18.2433 52.1956 16.8079 49.958L12.0406 42.5265Z"/>
</mask>
<path fill-rule="evenodd" clip-rule="evenodd" d="M9.31675 39.4335C12.2802 39.4335 14.6825 37.0312 14.6825 34.0677C14.6825 31.1043 12.2802 28.702 9.31675 28.702C6.35331 28.702 3.95097 31.1043 3.95097 34.0677C3.95097 37.0312 6.35331 39.4335 9.31675 39.4335ZM12.0406 42.5265C10.7177 40.4643 7.70405 40.4643 6.38114 42.5265L1.61386 49.958C0.178461 52.1956 1.78519 55.1352 4.44358 55.1352H13.9782C16.6366 55.1352 18.2433 52.1956 16.8079 49.958L12.0406 42.5265Z" fill="url(#paint0_linear_507_39)"/>
<path d="M6.38114 42.5265L6.93781 42.8836L6.38114 42.5265ZM12.0406 42.5265L12.5973 42.1694L12.0406 42.5265ZM1.61386 49.958L1.05719 49.6009H1.05719L1.61386 49.958ZM16.8079 49.958L16.2512 50.3151L16.8079 49.958ZM14.0212 34.0677C14.0212 36.6659 11.9149 38.7722 9.31675 38.7722V40.0949C12.6455 40.0949 15.3439 37.3964 15.3439 34.0677H14.0212ZM9.31675 29.3633C11.9149 29.3633 14.0212 31.4696 14.0212 34.0677H15.3439C15.3439 30.739 12.6455 28.0406 9.31675 28.0406V29.3633ZM4.61234 34.0677C4.61234 31.4696 6.71858 29.3633 9.31675 29.3633V28.0406C5.98805 28.0406 3.28961 30.739 3.28961 34.0677H4.61234ZM9.31675 38.7722C6.71858 38.7722 4.61234 36.6659 4.61234 34.0677H3.28961C3.28961 37.3964 5.98805 40.0949 9.31675 40.0949V38.7722ZM6.93781 42.8836C8.00048 41.2271 10.4213 41.2271 11.4839 42.8836L12.5973 42.1694C11.0141 39.7015 7.40763 39.7015 5.82447 42.1694L6.93781 42.8836ZM2.17053 50.3151L6.93781 42.8836L5.82447 42.1694L1.05719 49.6009L2.17053 50.3151ZM4.44358 54.4738C2.30816 54.4738 1.0175 52.1125 2.17053 50.3151L1.05719 49.6009C-0.66058 52.2786 1.26223 55.7966 4.44358 55.7966V54.4738ZM13.9782 54.4738H4.44358V55.7966H13.9782V54.4738ZM16.2512 50.3151C17.4043 52.1125 16.1136 54.4738 13.9782 54.4738V55.7966C17.1595 55.7966 19.0823 52.2786 17.3646 49.6009L16.2512 50.3151ZM11.4839 42.8836L16.2512 50.3151L17.3646 49.6009L12.5973 42.1694L11.4839 42.8836Z" fill="white" mask="url(#path-5-outside-1_507_39)"/>
<mask id="path-7-outside-2_507_39" maskUnits="userSpaceOnUse" x="22.6248" y="27.7019" width="18" height="29" fill="black">
<rect fill="white" x="22.6248" y="27.7019" width="18" height="29"/>
<path fill-rule="evenodd" clip-rule="evenodd" d="M31.8072 39.4335C34.7707 39.4335 37.173 37.0311 37.173 34.0677C37.173 31.1042 34.7707 28.7019 31.8072 28.7019C28.8438 28.7019 26.4414 31.1042 26.4414 34.0677C26.4414 37.0311 28.8438 39.4335 31.8072 39.4335ZM34.5892 42.5265C33.2663 40.4643 30.2526 40.4643 28.9297 42.5265L24.1624 49.958C22.7271 52.1955 24.3338 55.1352 26.9922 55.1352H36.5268C39.1852 55.1352 40.7919 52.1955 39.3565 49.9579L34.5892 42.5265Z"/>
</mask>
<path fill-rule="evenodd" clip-rule="evenodd" d="M31.8072 39.4335C34.7707 39.4335 37.173 37.0311 37.173 34.0677C37.173 31.1042 34.7707 28.7019 31.8072 28.7019C28.8438 28.7019 26.4414 31.1042 26.4414 34.0677C26.4414 37.0311 28.8438 39.4335 31.8072 39.4335ZM34.5892 42.5265C33.2663 40.4643 30.2526 40.4643 28.9297 42.5265L24.1624 49.958C22.7271 52.1955 24.3338 55.1352 26.9922 55.1352H36.5268C39.1852 55.1352 40.7919 52.1955 39.3565 49.9579L34.5892 42.5265Z" fill="url(#paint1_linear_507_39)"/>
<path d="M28.9297 42.5265L29.4864 42.8836L28.9297 42.5265ZM34.5892 42.5265L34.0325 42.8836L34.5892 42.5265ZM24.1624 49.958L23.6058 49.6009H23.6058L24.1624 49.958ZM39.3565 49.9579L38.7998 50.3151L39.3565 49.9579ZM36.5116 34.0677C36.5116 36.6659 34.4054 38.7721 31.8072 38.7721V40.0948C35.1359 40.0948 37.8344 37.3964 37.8344 34.0677H36.5116ZM31.8072 29.3633C34.4054 29.3633 36.5116 31.4695 36.5116 34.0677H37.8344C37.8344 30.739 35.1359 28.0405 31.8072 28.0405V29.3633ZM27.1028 34.0677C27.1028 31.4695 29.209 29.3633 31.8072 29.3633V28.0405C28.4785 28.0405 25.7801 30.739 25.7801 34.0677H27.1028ZM31.8072 38.7721C29.209 38.7721 27.1028 36.6659 27.1028 34.0677H25.7801C25.7801 37.3964 28.4785 40.0948 31.8072 40.0948V38.7721ZM29.4864 42.8836C30.5491 41.2271 32.9699 41.2271 34.0325 42.8836L35.1459 42.1694C33.5627 39.7015 29.9562 39.7015 28.3731 42.1694L29.4864 42.8836ZM24.7191 50.3151L29.4864 42.8836L28.3731 42.1694L23.6058 49.6009L24.7191 50.3151ZM26.9922 54.4738C24.8567 54.4738 23.5661 52.1124 24.7191 50.3151L23.6058 49.6009C21.888 52.2786 23.8108 55.7965 26.9922 55.7965V54.4738ZM36.5268 54.4738H26.9922V55.7965H36.5268V54.4738ZM38.7998 50.3151C39.9528 52.1124 38.6622 54.4738 36.5268 54.4738V55.7965C39.7081 55.7965 41.6309 52.2786 39.9132 49.6008L38.7998 50.3151ZM34.0325 42.8836L38.7998 50.3151L39.9132 49.6008L35.1459 42.1694L34.0325 42.8836Z" fill="white" mask="url(#path-7-outside-2_507_39)"/>
<mask id="path-9-outside-3_507_39" maskUnits="userSpaceOnUse" x="8.96289" y="23.8357" width="23" height="35" fill="black">
<rect fill="white" x="8.96289" y="23.8357" width="23" height="35"/>
<path fill-rule="evenodd" clip-rule="evenodd" d="M20.4932 37.9472C24.1139 37.9472 27.049 35.0121 27.049 31.3915C27.049 27.7708 24.1139 24.8357 20.4932 24.8357C16.8725 24.8357 13.9374 27.7708 13.9374 31.3915C13.9374 35.0121 16.8725 37.9472 20.4932 37.9472ZM23.3117 41.3256C21.9878 39.2707 18.9831 39.2707 17.6592 41.3256L10.5041 52.4319C9.06281 54.6691 10.669 57.6146 13.3303 57.6146H27.6406C30.3019 57.6146 31.9081 54.6692 30.4668 52.4319L23.3117 41.3256Z"/>
</mask>
<path fill-rule="evenodd" clip-rule="evenodd" d="M20.4932 37.9472C24.1139 37.9472 27.049 35.0121 27.049 31.3915C27.049 27.7708 24.1139 24.8357 20.4932 24.8357C16.8725 24.8357 13.9374 27.7708 13.9374 31.3915C13.9374 35.0121 16.8725 37.9472 20.4932 37.9472ZM23.3117 41.3256C21.9878 39.2707 18.9831 39.2707 17.6592 41.3256L10.5041 52.4319C9.06281 54.6691 10.669 57.6146 13.3303 57.6146H27.6406C30.3019 57.6146 31.9081 54.6692 30.4668 52.4319L23.3117 41.3256Z" fill="url(#paint2_linear_507_39)"/>
<path d="M17.6592 41.3256L18.2152 41.6838L17.6592 41.3256ZM23.3117 41.3256L22.7557 41.6838L23.3117 41.3256ZM10.5041 52.4319L11.0601 52.7901H11.0601L10.5041 52.4319ZM30.4668 52.4319L29.9108 52.7901L30.4668 52.4319ZM26.3876 31.3915C26.3876 34.6469 23.7486 37.2859 20.4932 37.2859V38.6086C24.4791 38.6086 27.7103 35.3774 27.7103 31.3915H26.3876ZM20.4932 25.4971C23.7486 25.4971 26.3876 28.1361 26.3876 31.3915H27.7103C27.7103 27.4056 24.4791 24.1743 20.4932 24.1743V25.4971ZM14.5988 31.3915C14.5988 28.1361 17.2378 25.4971 20.4932 25.4971V24.1743C16.5073 24.1743 13.2761 27.4056 13.2761 31.3915H14.5988ZM20.4932 37.2859C17.2378 37.2859 14.5988 34.6469 14.5988 31.3915H13.2761C13.2761 35.3774 16.5073 38.6086 20.4932 38.6086V37.2859ZM18.2152 41.6838C19.2786 40.0331 21.6923 40.0331 22.7557 41.6838L23.8676 40.9674C22.2834 38.5083 18.6875 38.5083 17.1033 40.9674L18.2152 41.6838ZM11.0601 52.7901L18.2152 41.6838L17.1033 40.9674L9.94815 52.0737L11.0601 52.7901ZM13.3303 56.9532C11.1925 56.9532 9.90232 54.5872 11.0601 52.7901L9.94815 52.0737C8.22329 54.7511 10.1455 58.276 13.3303 58.276V56.9532ZM27.6406 56.9532H13.3303V58.276H27.6406V56.9532ZM29.9108 52.7901C31.0686 54.5872 29.7783 56.9532 27.6406 56.9532V58.276C30.8254 58.276 32.7476 54.7511 31.0227 52.0737L29.9108 52.7901ZM22.7557 41.6838L29.9108 52.7901L31.0227 52.0737L23.8676 40.9674L22.7557 41.6838Z" fill="white" mask="url(#path-9-outside-3_507_39)"/>
<g filter="url(#filter0_d_507_39)">
<circle cx="24.4801" cy="24.7516" r="3.84683" fill="white"/>
<path d="M24.4807 29.038C22.1144 29.0354 20.1964 27.1178 20.1938 24.7517V24.666C20.241 22.3107 22.1808 20.4346 24.5364 20.4655C26.8929 20.4972 28.7821 22.4239 28.7667 24.7796C28.7513 27.1358 26.8372 29.038 24.4807 29.038ZM22.513 24.576L21.9086 25.1804L23.6233 26.8949L27.0528 23.4659L26.4484 22.8572L23.6233 25.6819L22.513 24.576Z" fill="#74E262"/>
</g>
<defs>
<filter id="filter0_d_507_39" x="16.2867" y="18.1208" width="16.3873" height="16.3873" filterUnits="userSpaceOnUse" color-interpolation-filters="sRGB">
<feFlood flood-opacity="0" result="BackgroundImageFix"/>
<feColorMatrix in="SourceAlpha" type="matrix" values="0 0 0 0 0 0 0 0 0 0 0 0 0 0 0 0 0 0 127 0" result="hardAlpha"/>
<feOffset dy="1.56286"/>
<feGaussianBlur stdDeviation="1.95358"/>
<feComposite in2="hardAlpha" operator="out"/>
<feColorMatrix type="matrix" values="0 0 0 0 0 0 0 0 0 0 0 0 0 0 0 0 0 0 0.25 0"/>
<feBlend mode="normal" in2="BackgroundImageFix" result="effect1_dropShadow_507_39"/>
<feBlend mode="normal" in="SourceGraphic" in2="effect1_dropShadow_507_39" result="shape"/>
</filter>
<linearGradient id="paint0_linear_507_39" x1="13.0875" y1="29.2378" x2="0.258607" y2="55.0251" gradientUnits="userSpaceOnUse">
<stop stop-color="#351461"/>
<stop offset="1" stop-color="#0099FF"/>
</linearGradient>
<linearGradient id="paint1_linear_507_39" x1="35.6361" y1="29.2378" x2="22.8072" y2="55.0252" gradientUnits="userSpaceOnUse">
<stop stop-color="#351461"/>
<stop offset="1" stop-color="#0099FF"/>
</linearGradient>
<linearGradient id="paint2_linear_507_39" x1="25.5" y1="25.5002" x2="10" y2="58.0002" gradientUnits="userSpaceOnUse">
<stop stop-color="#351461"/>
<stop offset="1" stop-color="#0099FF"/>
</linearGradient>
</defs>
</svg>
