<svg width="148" height="79" viewBox="0 0 148 79" fill="none" xmlns="http://www.w3.org/2000/svg">
<path d="M53.1787 64.0353H55.5188C56.3084 64.0353 56.9007 64.2472 57.2955 64.6709C57.6903 65.0946 57.8878 65.7158 57.8878 66.5343V67.531C57.8878 68.3496 57.6903 68.9707 57.2955 69.3944C56.9007 69.8182 56.3084 70.03 55.5188 70.03H54.7676V74.1469H53.1787V64.0353ZM55.5188 68.5855C55.7788 68.5855 55.9714 68.5133 56.0966 68.3688C56.2314 68.2244 56.2988 67.9788 56.2988 67.6321V66.4332C56.2988 66.0865 56.2314 65.8409 56.0966 65.6965C55.9714 65.552 55.7788 65.4798 55.5188 65.4798H54.7676V68.5855H55.5188ZM58.7507 64.0353H61.1053C61.9238 64.0353 62.5209 64.2279 62.8965 64.6131C63.272 64.9887 63.4598 65.5713 63.4598 66.361V66.9821C63.4598 68.0318 63.1131 68.6963 62.4198 68.9755V69.0044C62.805 69.12 63.0746 69.3559 63.2287 69.7122C63.3924 70.0685 63.4743 70.5452 63.4743 71.1423V72.919C63.4743 73.2079 63.4839 73.4439 63.5032 73.6268C63.5224 73.8002 63.5706 73.9735 63.6476 74.1469H62.0298C61.972 73.9831 61.9335 73.8291 61.9142 73.6846C61.8949 73.5402 61.8853 73.2801 61.8853 72.9046V71.0556C61.8853 70.5934 61.8083 70.2708 61.6542 70.0878C61.5097 69.9048 61.2545 69.8133 60.8886 69.8133H60.3397V74.1469H58.7507V64.0353ZM60.9175 68.3688C61.2353 68.3688 61.4712 68.287 61.6253 68.1233C61.789 67.9596 61.8709 67.6851 61.8709 67.2999V66.5199C61.8709 66.1539 61.8035 65.8891 61.6686 65.7254C61.5434 65.5617 61.3412 65.4798 61.0619 65.4798H60.3397V68.3688H60.9175ZM66.8735 74.2913C66.0934 74.2913 65.4964 74.0698 65.0823 73.6268C64.6682 73.1838 64.4612 72.5579 64.4612 71.749V66.4332C64.4612 65.6243 64.6682 64.9983 65.0823 64.5553C65.4964 64.1124 66.0934 63.8909 66.8735 63.8909C67.6535 63.8909 68.2506 64.1124 68.6647 64.5553C69.0788 64.9983 69.2858 65.6243 69.2858 66.4332V71.749C69.2858 72.5579 69.0788 73.1838 68.6647 73.6268C68.2506 74.0698 67.6535 74.2913 66.8735 74.2913ZM66.8735 72.8468C67.4224 72.8468 67.6968 72.5146 67.6968 71.8501V66.3321C67.6968 65.6676 67.4224 65.3354 66.8735 65.3354C66.3246 65.3354 66.0501 65.6676 66.0501 66.3321V71.8501C66.0501 72.5146 66.3246 72.8468 66.8735 72.8468ZM70.736 74.2046C70.4471 74.2046 70.2015 74.1854 69.9993 74.1469V72.7023C70.1533 72.7409 70.3267 72.7601 70.5193 72.7601C70.8371 72.7601 71.073 72.6831 71.2271 72.529C71.3812 72.3653 71.4582 72.1197 71.4582 71.7923V64.0353H73.0472V71.749C73.0472 72.5772 72.8546 73.1935 72.4694 73.5979C72.0938 74.0024 71.516 74.2046 70.736 74.2046ZM74.1832 64.0353H78.5168V65.4798H75.7722V68.1522H77.9534V69.5967H75.7722V72.7023H78.5168V74.1469H74.1832V64.0353ZM81.6698 74.2913C80.9091 74.2913 80.3264 74.0746 79.922 73.6413C79.5272 73.2079 79.3297 72.5964 79.3297 71.8068V66.3754C79.3297 65.5858 79.5272 64.9742 79.922 64.5409C80.3264 64.1075 80.9091 63.8909 81.6698 63.8909C82.4306 63.8909 83.0084 64.1075 83.4032 64.5409C83.8077 64.9742 84.0099 65.5858 84.0099 66.3754V67.4443H82.5077V66.2743C82.5077 65.6483 82.2428 65.3354 81.7132 65.3354C81.1835 65.3354 80.9187 65.6483 80.9187 66.2743V71.9223C80.9187 72.5386 81.1835 72.8468 81.7132 72.8468C82.2428 72.8468 82.5077 72.5386 82.5077 71.9223V70.3767H84.0099V71.8068C84.0099 72.5964 83.8077 73.2079 83.4032 73.6413C83.0084 74.0746 82.4306 74.2913 81.6698 74.2913ZM86.2029 65.4798H84.5417V64.0353H89.453V65.4798H87.7918V74.1469H86.2029V65.4798Z" fill="#666666"/>
<path d="M54.4209 4.95699H52.7598V3.51249H57.6711V4.95699H56.0099V13.624H54.4209V4.95699ZM58.4404 3.51249H60.0293V7.62933H61.7339V3.51249H63.3228V13.624H61.7339V9.07383H60.0293V13.624H58.4404V3.51249ZM64.5062 3.51249H68.8397V4.95699H66.0951V7.62933H68.2763V9.07383H66.0951V12.1795H68.8397V13.624H64.5062V3.51249Z" fill="#666666"/>
<path d="M55.1064 43.6605H58.0864L60.3664 57.6605H58.1664L57.7664 54.8805V54.9205H55.2664L54.8664 57.6605H52.8264L55.1064 43.6605ZM57.5064 53.0205L56.5264 46.1005H56.4864L55.5264 53.0205H57.5064ZM62.2358 45.6605H59.9358V43.6605H66.7358V45.6605H64.4358V57.6605H62.2358V45.6605ZM69.7163 45.6605H67.4163V43.6605H74.2163V45.6605H71.9163V57.6605H69.7163V45.6605ZM75.2814 43.6605H81.2814V45.6605H77.4814V49.3605H80.5014V51.3605H77.4814V55.6605H81.2814V57.6605H75.2814V43.6605ZM82.5471 43.6605H85.3071L87.4471 52.0405H87.4871V43.6605H89.4471V57.6605H87.1871L84.5471 47.4405H84.5071V57.6605H82.5471V43.6605ZM91.0822 43.6605H94.4422C95.5355 43.6605 96.3555 43.9539 96.9022 44.5405C97.4489 45.1272 97.7222 45.9872 97.7222 47.1205V54.2005C97.7222 55.3339 97.4489 56.1939 96.9022 56.7805C96.3555 57.3672 95.5355 57.6605 94.4422 57.6605H91.0822V43.6605ZM94.4022 55.6605C94.7622 55.6605 95.0355 55.5539 95.2222 55.3405C95.4222 55.1272 95.5222 54.7805 95.5222 54.3005V47.0205C95.5222 46.5405 95.4222 46.1939 95.2222 45.9805C95.0355 45.7672 94.7622 45.6605 94.4022 45.6605H93.2822V55.6605H94.4022ZM100.868 43.6605H103.848L106.128 57.6605H103.928L103.528 54.8805V54.9205H101.028L100.628 57.6605H98.5881L100.868 43.6605ZM103.268 53.0205L102.288 46.1005H102.248L101.288 53.0205H103.268ZM107.195 43.6605H109.955L112.095 52.0405H112.135V43.6605H114.095V57.6605H111.835L109.195 47.4405H109.155V57.6605H107.195V43.6605ZM118.831 57.8605C117.777 57.8605 116.971 57.5605 116.411 56.9605C115.864 56.3605 115.591 55.5139 115.591 54.4205V46.9005C115.591 45.8072 115.864 44.9605 116.411 44.3605C116.971 43.7605 117.777 43.4605 118.831 43.4605C119.884 43.4605 120.684 43.7605 121.231 44.3605C121.791 44.9605 122.071 45.8072 122.071 46.9005V48.3805H119.991V46.7605C119.991 45.8939 119.624 45.4605 118.891 45.4605C118.157 45.4605 117.791 45.8939 117.791 46.7605V54.5805C117.791 55.4339 118.157 55.8605 118.891 55.8605C119.624 55.8605 119.991 55.4339 119.991 54.5805V52.4405H122.071V54.4205C122.071 55.5139 121.791 56.3605 121.231 56.9605C120.684 57.5605 119.884 57.8605 118.831 57.8605ZM123.387 43.6605H129.387V45.6605H125.587V49.3605H128.607V51.3605H125.587V55.6605H129.387V57.6605H123.387V43.6605Z" fill="#666666"/>
<path d="M55.8624 19.6513H59.7364L62.7004 37.8513H59.8404L59.3204 34.2373V34.2893H56.0704L55.5504 37.8513H52.8984L55.8624 19.6513ZM58.9824 31.8193L57.7084 22.8233H57.6564L56.4084 31.8193H58.9824ZM68.1972 38.1113C66.8105 38.1113 65.7532 37.7213 65.0252 36.9413C64.2972 36.144 63.9332 35.0087 63.9332 33.5353V19.6513H66.7932V33.7433C66.7932 34.3673 66.9145 34.818 67.1572 35.0953C67.4172 35.3727 67.7812 35.5113 68.2492 35.5113C68.7172 35.5113 69.0725 35.3727 69.3152 35.0953C69.5752 34.818 69.7052 34.3673 69.7052 33.7433V19.6513H72.4612V33.5353C72.4612 35.0087 72.0972 36.144 71.3692 36.9413C70.6412 37.7213 69.5839 38.1113 68.1972 38.1113ZM76.7341 22.2513H73.7441V19.6513H82.5841V22.2513H79.5941V37.8513H76.7341V22.2513ZM88.0013 38.1113C86.5973 38.1113 85.5226 37.7127 84.7773 36.9153C84.0319 36.118 83.6593 34.9913 83.6593 33.5353V23.9673C83.6593 22.5113 84.0319 21.3847 84.7773 20.5873C85.5226 19.79 86.5973 19.3913 88.0013 19.3913C89.4053 19.3913 90.4799 19.79 91.2253 20.5873C91.9706 21.3847 92.3433 22.5113 92.3433 23.9673V33.5353C92.3433 34.9913 91.9706 36.118 91.2253 36.9153C90.4799 37.7127 89.4053 38.1113 88.0013 38.1113ZM88.0013 35.5113C88.9893 35.5113 89.4833 34.9133 89.4833 33.7173V23.7853C89.4833 22.5893 88.9893 21.9913 88.0013 21.9913C87.0133 21.9913 86.5193 22.5893 86.5193 23.7853V33.7173C86.5193 34.9133 87.0133 35.5113 88.0013 35.5113ZM94.2774 19.6513H98.3594L100.179 32.6773H100.231L102.051 19.6513H106.133V37.8513H103.429V24.0713H103.377L101.297 37.8513H98.9054L96.8254 24.0713H96.7734V37.8513H94.2774V19.6513ZM110.478 19.6513H114.352L117.316 37.8513H114.456L113.936 34.2373V34.2893H110.686L110.166 37.8513H107.514L110.478 19.6513ZM113.598 31.8193L112.324 22.8233H112.272L111.024 31.8193H113.598ZM119.746 22.2513H116.756V19.6513H125.596V22.2513H122.606V37.8513H119.746V22.2513ZM126.981 19.6513H134.781V22.2513H129.841V27.0613H133.767V29.6613H129.841V35.2513H134.781V37.8513H126.981V19.6513ZM136.426 19.6513H140.794C142.215 19.6513 143.281 20.0327 143.992 20.7953C144.703 21.558 145.058 22.676 145.058 24.1493V33.3533C145.058 34.8267 144.703 35.9447 143.992 36.7073C143.281 37.47 142.215 37.8513 140.794 37.8513H136.426V19.6513ZM140.742 35.2513C141.21 35.2513 141.565 35.1127 141.808 34.8353C142.068 34.558 142.198 34.1073 142.198 33.4833V24.0193C142.198 23.3953 142.068 22.9447 141.808 22.6673C141.565 22.39 141.21 22.2513 140.742 22.2513H139.286V35.2513H140.742Z" fill="#666666"/>
<mask id="path-5-outside-1_608_217" maskUnits="userSpaceOnUse" x="0" y="27.7017" width="18" height="29" fill="black">
<rect fill="white" y="27.7017" width="18" height="29"/>
<path fill-rule="evenodd" clip-rule="evenodd" d="M9.24059 39.4332C12.204 39.4332 14.6064 37.0309 14.6064 34.0674C14.6064 31.104 12.204 28.7017 9.24059 28.7017C6.27715 28.7017 3.87481 31.104 3.87481 34.0674C3.87481 37.0309 6.27715 39.4332 9.24059 39.4332ZM11.9644 42.5262C10.6415 40.464 7.62789 40.464 6.30498 42.5262L1.53769 49.9577C0.102296 52.1953 1.70903 55.1349 4.36742 55.1349H13.902C16.5604 55.1349 18.1671 52.1953 16.7317 49.9577L11.9644 42.5262Z"/>
</mask>
<path fill-rule="evenodd" clip-rule="evenodd" d="M9.24059 39.4332C12.204 39.4332 14.6064 37.0309 14.6064 34.0674C14.6064 31.104 12.204 28.7017 9.24059 28.7017C6.27715 28.7017 3.87481 31.104 3.87481 34.0674C3.87481 37.0309 6.27715 39.4332 9.24059 39.4332ZM11.9644 42.5262C10.6415 40.464 7.62789 40.464 6.30498 42.5262L1.53769 49.9577C0.102296 52.1953 1.70903 55.1349 4.36742 55.1349H13.902C16.5604 55.1349 18.1671 52.1953 16.7317 49.9577L11.9644 42.5262Z" fill="url(#paint0_linear_608_217)"/>
<path d="M6.30498 42.5262L6.86165 42.8834L6.30498 42.5262ZM11.9644 42.5262L12.5211 42.1691L11.9644 42.5262ZM1.53769 49.9577L0.981024 49.6006H0.981024L1.53769 49.9577ZM16.7317 49.9577L16.1751 50.3148L16.7317 49.9577ZM13.945 34.0674C13.945 36.6656 11.8388 38.7719 9.24059 38.7719V40.0946C12.5693 40.0946 15.2677 37.3961 15.2677 34.0674H13.945ZM9.24059 29.363C11.8388 29.363 13.945 31.4693 13.945 34.0674H15.2677C15.2677 30.7387 12.5693 28.0403 9.24059 28.0403V29.363ZM4.53617 34.0674C4.53617 31.4693 6.64241 29.363 9.24059 29.363V28.0403C5.91189 28.0403 3.21344 30.7387 3.21344 34.0674H4.53617ZM9.24059 38.7719C6.64241 38.7719 4.53617 36.6656 4.53617 34.0674H3.21344C3.21344 37.3961 5.91189 40.0946 9.24059 40.0946V38.7719ZM6.86165 42.8834C7.92431 41.2268 10.3451 41.2268 11.4078 42.8833L12.5211 42.1691C10.938 39.7012 7.33146 39.7013 5.74831 42.1691L6.86165 42.8834ZM2.09436 50.3148L6.86165 42.8834L5.74831 42.1691L0.981024 49.6006L2.09436 50.3148ZM4.36742 54.4736C2.23199 54.4736 0.941337 52.1122 2.09436 50.3148L0.981024 49.6006C-0.736745 52.2783 1.18606 55.7963 4.36742 55.7963V54.4736ZM13.902 54.4736H4.36742V55.7963H13.902V54.4736ZM16.1751 50.3148C17.3281 52.1122 16.0374 54.4736 13.902 54.4736V55.7963C17.0834 55.7963 19.0062 52.2783 17.2884 49.6006L16.1751 50.3148ZM11.4078 42.8833L16.1751 50.3148L17.2884 49.6006L12.5211 42.1691L11.4078 42.8833Z" fill="white" mask="url(#path-5-outside-1_608_217)"/>
<mask id="path-7-outside-2_608_217" maskUnits="userSpaceOnUse" x="22.5486" y="27.7018" width="18" height="29" fill="black">
<rect fill="white" x="22.5486" y="27.7018" width="18" height="29"/>
<path fill-rule="evenodd" clip-rule="evenodd" d="M31.731 39.4333C34.6945 39.4333 37.0968 37.031 37.0968 34.0676C37.0968 31.1041 34.6945 28.7018 31.731 28.7018C28.7676 28.7018 26.3653 31.1041 26.3653 34.0676C26.3653 37.031 28.7676 39.4333 31.731 39.4333ZM34.513 42.5264C33.1901 40.4641 30.1765 40.4642 28.8536 42.5264L24.0863 49.9578C22.6509 52.1954 24.2576 55.135 26.916 55.135H36.4506C39.109 55.135 40.7157 52.1954 39.2803 49.9578L34.513 42.5264Z"/>
</mask>
<path fill-rule="evenodd" clip-rule="evenodd" d="M31.731 39.4333C34.6945 39.4333 37.0968 37.031 37.0968 34.0676C37.0968 31.1041 34.6945 28.7018 31.731 28.7018C28.7676 28.7018 26.3653 31.1041 26.3653 34.0676C26.3653 37.031 28.7676 39.4333 31.731 39.4333ZM34.513 42.5264C33.1901 40.4641 30.1765 40.4642 28.8536 42.5264L24.0863 49.9578C22.6509 52.1954 24.2576 55.135 26.916 55.135H36.4506C39.109 55.135 40.7157 52.1954 39.2803 49.9578L34.513 42.5264Z" fill="url(#paint1_linear_608_217)"/>
<path d="M28.8536 42.5264L29.4102 42.8835L28.8536 42.5264ZM34.513 42.5264L33.9564 42.8835L34.513 42.5264ZM24.0863 49.9578L23.5296 49.6007H23.5296L24.0863 49.9578ZM39.2803 49.9578L38.7236 50.3149L39.2803 49.9578ZM36.4355 34.0676C36.4355 36.6657 34.3292 38.772 31.731 38.772V40.0947C35.0597 40.0947 37.7582 37.3963 37.7582 34.0676H36.4355ZM31.731 29.3631C34.3292 29.3631 36.4355 31.4694 36.4355 34.0676H37.7582C37.7582 30.7389 35.0597 28.0404 31.731 28.0404V29.3631ZM27.0266 34.0676C27.0266 31.4694 29.1329 29.3631 31.731 29.3631V28.0404C28.4023 28.0404 25.7039 30.7389 25.7039 34.0676H27.0266ZM31.731 38.772C29.1329 38.772 27.0266 36.6657 27.0266 34.0676H25.7039C25.7039 37.3963 28.4023 40.0947 31.731 40.0947V38.772ZM29.4102 42.8835C30.4729 41.2269 32.8937 41.2269 33.9564 42.8835L35.0697 42.1693C33.4865 39.7014 29.88 39.7014 28.2969 42.1693L29.4102 42.8835ZM24.6429 50.3149L29.4102 42.8835L28.2969 42.1693L23.5296 49.6007L24.6429 50.3149ZM26.916 54.4737C24.7806 54.4737 23.4899 52.1123 24.6429 50.3149L23.5296 49.6007C21.8118 52.2785 23.7346 55.7964 26.916 55.7964V54.4737ZM36.4506 54.4737H26.916V55.7964H36.4506V54.4737ZM38.7236 50.3149C39.8767 52.1123 38.586 54.4737 36.4506 54.4737V55.7964C39.6319 55.7964 41.5548 52.2785 39.837 49.6007L38.7236 50.3149ZM33.9564 42.8835L38.7236 50.3149L39.837 49.6007L35.0697 42.1693L33.9564 42.8835Z" fill="white" mask="url(#path-7-outside-2_608_217)"/>
<mask id="path-9-outside-3_608_217" maskUnits="userSpaceOnUse" x="8.88672" y="23.8356" width="23" height="35" fill="black">
<rect fill="white" x="8.88672" y="23.8356" width="23" height="35"/>
<path fill-rule="evenodd" clip-rule="evenodd" d="M20.417 37.9471C24.0377 37.9471 26.9728 35.012 26.9728 31.3913C26.9728 27.7707 24.0377 24.8356 20.417 24.8356C16.7964 24.8356 13.8613 27.7707 13.8613 31.3913C13.8613 35.012 16.7964 37.9471 20.417 37.9471ZM23.2355 41.3255C21.9116 39.2706 18.9069 39.2706 17.5831 41.3255L10.428 52.4318C8.98663 54.669 10.5928 57.6145 13.2542 57.6145H27.5644C30.2257 57.6145 31.8319 54.669 30.3906 52.4318L23.2355 41.3255Z"/>
</mask>
<path fill-rule="evenodd" clip-rule="evenodd" d="M20.417 37.9471C24.0377 37.9471 26.9728 35.012 26.9728 31.3913C26.9728 27.7707 24.0377 24.8356 20.417 24.8356C16.7964 24.8356 13.8613 27.7707 13.8613 31.3913C13.8613 35.012 16.7964 37.9471 20.417 37.9471ZM23.2355 41.3255C21.9116 39.2706 18.9069 39.2706 17.5831 41.3255L10.428 52.4318C8.98663 54.669 10.5928 57.6145 13.2542 57.6145H27.5644C30.2257 57.6145 31.8319 54.669 30.3906 52.4318L23.2355 41.3255Z" fill="url(#paint2_linear_608_217)"/>
<path d="M17.5831 41.3255L17.0271 40.9673L17.5831 41.3255ZM23.2355 41.3255L23.7915 40.9673L23.2355 41.3255ZM10.428 52.4318L9.87198 52.0736H9.87198L10.428 52.4318ZM30.3906 52.4318L29.8346 52.79L30.3906 52.4318ZM26.3114 31.3913C26.3114 34.6467 23.6724 37.2858 20.417 37.2858V38.6085C24.4029 38.6085 27.6342 35.3773 27.6342 31.3913H26.3114ZM20.417 25.4969C23.6724 25.4969 26.3114 28.136 26.3114 31.3913H27.6342C27.6342 27.4054 24.4029 24.1742 20.417 24.1742V25.4969ZM14.5226 31.3913C14.5226 28.136 17.1616 25.4969 20.417 25.4969V24.1742C16.4311 24.1742 13.1999 27.4054 13.1999 31.3913H14.5226ZM20.417 37.2858C17.1616 37.2858 14.5226 34.6467 14.5226 31.3913H13.1999C13.1999 35.3773 16.4311 38.6085 20.417 38.6085V37.2858ZM18.139 41.6837C19.2025 40.033 21.6161 40.033 22.6795 41.6837L23.7915 40.9673C22.2072 38.5081 18.6114 38.5081 17.0271 40.9673L18.139 41.6837ZM10.9839 52.79L18.139 41.6837L17.0271 40.9673L9.87198 52.0736L10.9839 52.79ZM13.2542 56.9531C11.1164 56.9531 9.82615 54.5871 10.9839 52.79L9.87198 52.0736C8.14712 54.751 10.0693 58.2758 13.2542 58.2758V56.9531ZM27.5644 56.9531H13.2542V58.2758H27.5644V56.9531ZM29.8346 52.79C30.9924 54.5871 29.7022 56.9531 27.5644 56.9531V58.2758C30.7493 58.2758 32.6714 54.751 30.9466 52.0736L29.8346 52.79ZM22.6795 41.6837L29.8346 52.79L30.9466 52.0736L23.7915 40.9673L22.6795 41.6837Z" fill="white" mask="url(#path-9-outside-3_608_217)"/>
<g filter="url(#filter0_d_608_217)">
<circle cx="24.404" cy="24.7515" r="3.84683" fill="white"/>
<path d="M24.4045 29.0379C22.0382 29.0353 20.1202 27.1176 20.1177 24.7516V24.6659C20.1648 22.3106 22.1046 20.4345 24.4603 20.4653C26.8167 20.4971 28.7059 22.4237 28.6905 24.7795C28.6751 27.1356 26.761 29.0379 24.4045 29.0379ZM22.4369 24.5759L21.8324 25.1802L23.5472 26.8948L26.9766 23.4657L26.3722 22.8571L23.5472 25.6817L22.4369 24.5759Z" fill="#74E262"/>
</g>
<defs>
<filter id="filter0_d_608_217" x="16.2105" y="18.1207" width="16.3873" height="16.3872" filterUnits="userSpaceOnUse" color-interpolation-filters="sRGB">
<feFlood flood-opacity="0" result="BackgroundImageFix"/>
<feColorMatrix in="SourceAlpha" type="matrix" values="0 0 0 0 0 0 0 0 0 0 0 0 0 0 0 0 0 0 127 0" result="hardAlpha"/>
<feOffset dy="1.56286"/>
<feGaussianBlur stdDeviation="1.95358"/>
<feComposite in2="hardAlpha" operator="out"/>
<feColorMatrix type="matrix" values="0 0 0 0 0 0 0 0 0 0 0 0 0 0 0 0 0 0 0.25 0"/>
<feBlend mode="normal" in2="BackgroundImageFix" result="effect1_dropShadow_608_217"/>
<feBlend mode="normal" in="SourceGraphic" in2="effect1_dropShadow_608_217" result="shape"/>
</filter>
<linearGradient id="paint0_linear_608_217" x1="13.0113" y1="29.2376" x2="0.182435" y2="55.0249" gradientUnits="userSpaceOnUse">
<stop stop-color="#351461"/>
<stop offset="1" stop-color="#0099FF"/>
</linearGradient>
<linearGradient id="paint1_linear_608_217" x1="35.5599" y1="29.2377" x2="22.731" y2="55.025" gradientUnits="userSpaceOnUse">
<stop stop-color="#351461"/>
<stop offset="1" stop-color="#0099FF"/>
</linearGradient>
<linearGradient id="paint2_linear_608_217" x1="25.4238" y1="25.5001" x2="9.92383" y2="58.0001" gradientUnits="userSpaceOnUse">
<stop stop-color="#351461"/>
<stop offset="1" stop-color="#0099FF"/>
</linearGradient>
</defs>
</svg>
