<svg width="198" height="164" viewBox="0 0 198 164" fill="none" xmlns="http://www.w3.org/2000/svg">
<path d="M118.23 134H123.09C124.73 134 125.96 134.44 126.78 135.32C127.6 136.2 128.01 137.49 128.01 139.19V141.26C128.01 142.96 127.6 144.25 126.78 145.13C125.96 146.01 124.73 146.45 123.09 146.45H121.53V155H118.23V134ZM123.09 143.45C123.63 143.45 124.03 143.3 124.29 143C124.57 142.7 124.71 142.19 124.71 141.47V138.98C124.71 138.26 124.57 137.75 124.29 137.45C124.03 137.15 123.63 137 123.09 137H121.53V143.45H123.09ZM129.802 134H134.692C136.392 134 137.632 134.4 138.412 135.2C139.192 135.98 139.582 137.19 139.582 138.83V140.12C139.582 142.3 138.862 143.68 137.422 144.26V144.32C138.222 144.56 138.782 145.05 139.102 145.79C139.442 146.53 139.612 147.52 139.612 148.76V152.45C139.612 153.05 139.632 153.54 139.672 153.92C139.712 154.28 139.812 154.64 139.972 155H136.612C136.492 154.66 136.412 154.34 136.372 154.04C136.332 153.74 136.312 153.2 136.312 152.42V148.58C136.312 147.62 136.152 146.95 135.832 146.57C135.532 146.19 135.002 146 134.242 146H133.102V155H129.802V134ZM134.302 143C134.962 143 135.452 142.83 135.772 142.49C136.112 142.15 136.282 141.58 136.282 140.78V139.16C136.282 138.4 136.142 137.85 135.862 137.51C135.602 137.17 135.182 137 134.602 137H133.102V143H134.302ZM146.672 155.3C145.052 155.3 143.812 154.84 142.952 153.92C142.092 153 141.662 151.7 141.662 150.02V138.98C141.662 137.3 142.092 136 142.952 135.08C143.812 134.16 145.052 133.7 146.672 133.7C148.292 133.7 149.532 134.16 150.392 135.08C151.252 136 151.682 137.3 151.682 138.98V150.02C151.682 151.7 151.252 153 150.392 153.92C149.532 154.84 148.292 155.3 146.672 155.3ZM146.672 152.3C147.812 152.3 148.382 151.61 148.382 150.23V138.77C148.382 137.39 147.812 136.7 146.672 136.7C145.532 136.7 144.962 137.39 144.962 138.77V150.23C144.962 151.61 145.532 152.3 146.672 152.3ZM154.694 155.12C154.094 155.12 153.584 155.08 153.164 155V152C153.484 152.08 153.844 152.12 154.244 152.12C154.904 152.12 155.394 151.96 155.714 151.64C156.034 151.3 156.194 150.79 156.194 150.11V134H159.494V150.02C159.494 151.74 159.094 153.02 158.294 153.86C157.514 154.7 156.314 155.12 154.694 155.12ZM161.853 134H170.853V137H165.153V142.55H169.683V145.55H165.153V152H170.853V155H161.853V134ZM177.401 155.3C175.821 155.3 174.611 154.85 173.771 153.95C172.951 153.05 172.541 151.78 172.541 150.14V138.86C172.541 137.22 172.951 135.95 173.771 135.05C174.611 134.15 175.821 133.7 177.401 133.7C178.981 133.7 180.181 134.15 181.001 135.05C181.841 135.95 182.261 137.22 182.261 138.86V141.08H179.141V138.65C179.141 137.35 178.591 136.7 177.491 136.7C176.391 136.7 175.841 137.35 175.841 138.65V150.38C175.841 151.66 176.391 152.3 177.491 152.3C178.591 152.3 179.141 151.66 179.141 150.38V147.17H182.261V150.14C182.261 151.78 181.841 153.05 181.001 153.95C180.181 154.85 178.981 155.3 177.401 155.3ZM186.816 137H183.366V134H193.566V137H190.116V155H186.816V137Z" fill="white"/>
<path d="M163.81 9H160.36V6H170.56V9H167.11V27H163.81V9ZM172.158 6H175.458V14.55H178.998V6H182.298V27H178.998V17.55H175.458V27H172.158V6ZM184.755 6H193.755V9H188.055V14.55H192.585V17.55H188.055V24H193.755V27H184.755V6Z" fill="white"/>
<path d="M26.67 88.5H33.375L38.505 120H33.555L32.655 113.745V113.835H27.03L26.13 120H21.54L26.67 88.5ZM32.07 109.56L29.865 93.99H29.775L27.615 109.56H32.07ZM42.7111 93H37.5361V88.5H52.8361V93H47.6611V120H42.7111V93ZM59.5421 93H54.3671V88.5H69.6671V93H64.4921V120H59.5421V93ZM72.0638 88.5H85.5638V93H77.0138V101.325H83.8088V105.825H77.0138V115.5H85.5638V120H72.0638V88.5ZM88.4114 88.5H94.6214L99.4364 107.355H99.5264V88.5H103.936V120H98.8514L92.9114 97.005H92.8214V120H88.4114V88.5ZM107.616 88.5H115.176C117.636 88.5 119.481 89.16 120.711 90.48C121.941 91.8 122.556 93.735 122.556 96.285V112.215C122.556 114.765 121.941 116.7 120.711 118.02C119.481 119.34 117.636 120 115.176 120H107.616V88.5ZM115.086 115.5C115.896 115.5 116.511 115.26 116.931 114.78C117.381 114.3 117.606 113.52 117.606 112.44V96.06C117.606 94.98 117.381 94.2 116.931 93.72C116.511 93.24 115.896 93 115.086 93H112.566V115.5H115.086ZM129.634 88.5H136.339L141.469 120H136.519L135.619 113.745V113.835H129.994L129.094 120H124.504L129.634 88.5ZM135.034 109.56L132.829 93.99H132.739L130.579 109.56H135.034ZM143.87 88.5H150.08L154.895 107.355H154.985V88.5H159.395V120H154.31L148.37 97.005H148.28V120H143.87V88.5ZM170.049 120.45C167.679 120.45 165.864 119.775 164.604 118.425C163.374 117.075 162.759 115.17 162.759 112.71V95.79C162.759 93.33 163.374 91.425 164.604 90.075C165.864 88.725 167.679 88.05 170.049 88.05C172.419 88.05 174.219 88.725 175.449 90.075C176.709 91.425 177.339 93.33 177.339 95.79V99.12H172.659V95.475C172.659 93.525 171.834 92.55 170.184 92.55C168.534 92.55 167.709 93.525 167.709 95.475V113.07C167.709 114.99 168.534 115.95 170.184 115.95C171.834 115.95 172.659 114.99 172.659 113.07V108.255H177.339V112.71C177.339 115.17 176.709 117.075 175.449 118.425C174.219 119.775 172.419 120.45 170.049 120.45ZM180.301 88.5H193.801V93H185.251V101.325H192.046V105.825H185.251V115.5H193.801V120H180.301V88.5Z" fill="white"/>
<path d="M6.93 38.5H15.125L21.395 77H15.345L14.245 69.355V69.465H7.37L6.27 77H0.66L6.93 38.5ZM13.53 64.24L10.835 45.21H10.725L8.085 64.24H13.53ZM33.0228 77.55C30.0894 77.55 27.8528 76.725 26.3128 75.075C24.7728 73.3883 24.0028 70.9867 24.0028 67.87V38.5H30.0528V68.31C30.0528 69.63 30.3094 70.5833 30.8228 71.17C31.3728 71.7567 32.1428 72.05 33.1328 72.05C34.1228 72.05 34.8744 71.7567 35.3878 71.17C35.9378 70.5833 36.2128 69.63 36.2128 68.31V38.5H42.0428V67.87C42.0428 70.9867 41.2728 73.3883 39.7328 75.075C38.1928 76.725 35.9561 77.55 33.0228 77.55ZM51.0817 44H44.7567V38.5H63.4567V44H57.1317V77H51.0817V44ZM74.916 77.55C71.946 77.55 69.6727 76.7067 68.096 75.02C66.5193 73.3333 65.731 70.95 65.731 67.87V47.63C65.731 44.55 66.5193 42.1667 68.096 40.48C69.6727 38.7933 71.946 37.95 74.916 37.95C77.886 37.95 80.1593 38.7933 81.736 40.48C83.3127 42.1667 84.101 44.55 84.101 47.63V67.87C84.101 70.95 83.3127 73.3333 81.736 75.02C80.1593 76.7067 77.886 77.55 74.916 77.55ZM74.916 72.05C77.006 72.05 78.051 70.785 78.051 68.255V47.245C78.051 44.715 77.006 43.45 74.916 43.45C72.826 43.45 71.781 44.715 71.781 47.245V68.255C71.781 70.785 72.826 72.05 74.916 72.05ZM88.1925 38.5H96.8275L100.678 66.055H100.788L104.638 38.5H113.273V77H107.553V47.85H107.443L103.043 77H97.9825L93.5825 47.85H93.4725V77H88.1925V38.5ZM122.462 38.5H130.657L136.927 77H130.877L129.777 69.355V69.465H122.902L121.802 77H116.192L122.462 38.5ZM129.062 64.24L126.367 45.21H126.257L123.617 64.24H129.062ZM142.068 44H135.743V38.5H154.443V44H148.118V77H142.068V44ZM157.372 38.5H173.872V44H163.422V54.175H171.727V59.675H163.422V71.5H173.872V77H157.372V38.5ZM177.353 38.5H186.593C189.599 38.5 191.854 39.3067 193.358 40.92C194.861 42.5333 195.613 44.8983 195.613 48.015V67.485C195.613 70.6017 194.861 72.9667 193.358 74.58C191.854 76.1933 189.599 77 186.593 77H177.353V38.5ZM186.483 71.5C187.473 71.5 188.224 71.2067 188.738 70.62C189.288 70.0333 189.563 69.08 189.563 67.76V47.74C189.563 46.42 189.288 45.4667 188.738 44.88C188.224 44.2933 187.473 44 186.483 44H183.403V71.5H186.483Z" fill="white"/>
</svg>
